<svg width="430" height="150" viewBox="0 0 430 150" fill="none" xmlns="http://www.w3.org/2000/svg">
<path d="M75 100C78.5 105.25 83.1875 109.562 88.75 112.5L75 126.25L61.25 112.5C66.8125 109.562 71.5625 105.25 75 100ZM106.25 70C102.935 70 99.7554 71.3169 97.4112 73.6611C95.067 76.0054 93.75 79.1848 93.75 82.5C93.75 85.8152 95.067 88.9946 97.4112 91.3388C99.7554 93.683 102.935 95 106.25 95C109.565 95 112.745 93.683 115.089 91.3388C117.433 88.9946 118.75 85.8152 118.75 82.5C118.75 79.1848 117.433 76.0054 115.089 73.6611C112.745 71.3169 109.565 70 106.25 70ZM43.75 70C40.4348 70 37.2554 71.3169 34.9112 73.6611C32.567 76.0054 31.25 79.1848 31.25 82.5C31.25 85.8152 32.567 88.9946 34.9112 91.3388C37.2554 93.683 40.4348 95 43.75 95C47.0652 95 50.2446 93.683 52.5888 91.3388C54.933 88.9946 56.25 85.8152 56.25 82.5C56.25 79.1848 54.933 76.0054 52.5888 73.6611C50.2446 71.3169 47.0652 70 43.75 70ZM106.25 54.375C112.88 54.375 119.239 57.0089 123.928 61.6973C128.616 66.3857 131.25 72.7446 131.25 79.375C131.25 86.0054 128.616 92.3643 123.928 97.0527C119.239 101.741 112.88 104.375 106.25 104.375C99.6196 104.375 93.2607 101.741 88.5723 97.0527C83.8839 92.3643 81.25 86.0054 81.25 79.375C81.25 72.7446 83.8839 66.3857 88.5723 61.6973C93.2607 57.0089 99.6196 54.375 106.25 54.375ZM43.75 54.375C50.3804 54.375 56.7393 57.0089 61.4277 61.6973C66.1161 66.3857 68.75 72.7446 68.75 79.375C68.75 86.0054 66.1161 92.3643 61.4277 97.0527C56.7393 101.741 50.3804 104.375 43.75 104.375C37.1196 104.375 30.7607 101.741 26.0723 97.0527C21.3839 92.3643 18.75 86.0054 18.75 79.375C18.75 72.7446 21.3839 66.3857 26.0723 61.6973C30.7607 57.0089 37.1196 54.375 43.75 54.375ZM43.75 29.375C54.75 52.5 17.0625 46.625 9.6875 63.75C7.4375 68.75 6.25 73.9375 6.25 79.375C6.25 89.3206 10.2009 98.8589 17.2335 105.891C24.2661 112.924 33.8044 116.875 43.75 116.875C45.0625 116.812 46.375 116.75 47.6875 116.562L66.1875 135.062L75 143.75L83.8125 135.062L102.313 116.562C103.625 116.75 104.938 116.812 106.25 116.875C116.196 116.875 125.734 112.924 132.767 105.891C139.799 98.8589 143.75 89.3206 143.75 79.375C143.75 73.9375 142.562 68.75 140.312 63.75C132.938 46.625 104.089 54.125 115.089 31C98.5888 43.875 98 46.9375 77 47C56 46.9375 60.25 42.25 43.75 29.375Z" fill="white"/>
<path d="M194.178 61.3232V63.1543C194.178 65.8398 193.82 68.2568 193.104 70.4053C192.387 72.5374 191.37 74.3522 190.052 75.8496C188.733 77.347 187.163 78.4945 185.34 79.292C183.517 80.0895 181.491 80.4883 179.261 80.4883C177.063 80.4883 175.045 80.0895 173.206 79.292C171.383 78.4945 169.804 77.347 168.47 75.8496C167.135 74.3522 166.102 72.5374 165.369 70.4053C164.637 68.2568 164.271 65.8398 164.271 63.1543V61.3232C164.271 58.6214 164.637 56.2044 165.369 54.0723C166.102 51.9401 167.127 50.1253 168.445 48.6279C169.764 47.1143 171.334 45.9587 173.157 45.1611C174.996 44.3636 177.015 43.9648 179.212 43.9648C181.442 43.9648 183.468 44.3636 185.291 45.1611C187.114 45.9587 188.685 47.1143 190.003 48.6279C191.338 50.1253 192.363 51.9401 193.079 54.0723C193.812 56.2044 194.178 58.6214 194.178 61.3232ZM187.391 63.1543V61.2744C187.391 59.3376 187.212 57.6367 186.854 56.1719C186.495 54.6908 185.966 53.4456 185.267 52.4365C184.567 51.4274 183.704 50.6706 182.679 50.166C181.653 49.6452 180.498 49.3848 179.212 49.3848C177.91 49.3848 176.754 49.6452 175.745 50.166C174.752 50.6706 173.906 51.4274 173.206 52.4365C172.506 53.4456 171.969 54.6908 171.595 56.1719C171.237 57.6367 171.058 59.3376 171.058 61.2744V63.1543C171.058 65.0749 171.237 66.7757 171.595 68.2568C171.969 69.738 172.506 70.9912 173.206 72.0166C173.922 73.0257 174.785 73.7907 175.794 74.3115C176.803 74.8324 177.959 75.0928 179.261 75.0928C180.563 75.0928 181.718 74.8324 182.728 74.3115C183.737 73.7907 184.583 73.0257 185.267 72.0166C185.966 70.9912 186.495 69.738 186.854 68.2568C187.212 66.7757 187.391 65.0749 187.391 63.1543Z" fill="white"/>
<path d="M208.606 73.1885L215.687 44.4531H219.52L219.764 50.5078L212.195 80H208.143L208.606 73.1885ZM204.139 44.4531L209.949 73.0908V80H205.53L197.474 44.4531H204.139ZM227.112 72.9688L232.825 44.4531H239.515L231.458 80H227.039L227.112 72.9688ZM221.351 44.4531L228.431 73.2861L228.846 80H224.793L217.249 50.4834L217.542 44.4531H221.351Z" fill="white"/>
<path d="M266.321 74.7266V80H248.45V74.7266H266.321ZM250.477 44.4531V80H243.763V44.4531H250.477Z" fill="white"/>
<path d="M270.813 44.4531H283.729C286.43 44.4531 288.75 44.86 290.687 45.6738C292.623 46.4876 294.113 47.6921 295.154 49.2871C296.196 50.8822 296.717 52.8434 296.717 55.1709C296.717 57.0101 296.391 58.6051 295.74 59.9561C295.089 61.307 294.17 62.4382 292.981 63.3496C291.81 64.2611 290.426 64.9772 288.831 65.498L286.731 66.5723H275.33L275.281 61.2744H283.802C285.185 61.2744 286.333 61.0303 287.244 60.542C288.156 60.0537 288.839 59.3783 289.295 58.5156C289.767 57.653 290.003 56.6683 290.003 55.5615C290.003 54.3734 289.775 53.348 289.319 52.4854C288.864 51.6064 288.172 50.931 287.244 50.459C286.316 49.987 285.145 49.751 283.729 49.751H277.527V80H270.813V44.4531ZM290.882 80L282.654 64.082L289.759 64.0576L298.084 79.6582V80H290.882Z" fill="white"/>
<path d="M316.736 49.8486L306.604 80H299.5L312.781 44.4531H317.322L316.736 49.8486ZM325.208 80L315.027 49.8486L314.417 44.4531H318.982L332.337 80H325.208ZM324.744 66.792V72.0898H305.677V66.792H324.744Z" fill="white"/>
<path d="M364.563 44.4531V80H357.825L342.713 55.3418V80H335.999V44.4531H342.713L357.874 69.1357V44.4531H364.563Z" fill="white"/>
<path d="M399.134 61.6162V75.459C398.613 76.1263 397.791 76.8506 396.668 77.6318C395.561 78.4131 394.113 79.0885 392.322 79.6582C390.532 80.2116 388.335 80.4883 385.73 80.4883C383.468 80.4883 381.401 80.1139 379.529 79.3652C377.658 78.6003 376.046 77.4854 374.695 76.0205C373.344 74.5557 372.303 72.7653 371.57 70.6494C370.838 68.5335 370.472 66.1165 370.472 63.3984V61.0547C370.472 58.3366 370.813 55.9196 371.497 53.8037C372.197 51.6878 373.19 49.8975 374.476 48.4326C375.778 46.9678 377.332 45.8529 379.139 45.0879C380.962 44.3229 382.996 43.9404 385.242 43.9404C388.253 43.9404 390.727 44.4368 392.664 45.4297C394.617 46.4225 396.115 47.7897 397.156 49.5312C398.198 51.2565 398.849 53.2422 399.109 55.4883H392.566C392.387 54.2513 392.029 53.1689 391.492 52.2412C390.955 51.2972 390.19 50.5648 389.197 50.0439C388.221 49.5068 386.951 49.2383 385.389 49.2383C384.07 49.2383 382.907 49.4987 381.897 50.0195C380.888 50.5404 380.042 51.2972 379.358 52.29C378.675 53.2829 378.154 54.5117 377.796 55.9766C377.454 57.4414 377.283 59.1178 377.283 61.0059V63.3984C377.283 65.3027 377.479 66.9954 377.869 68.4766C378.26 69.9414 378.821 71.1784 379.554 72.1875C380.302 73.1803 381.222 73.9372 382.312 74.458C383.419 74.9626 384.673 75.2148 386.072 75.2148C387.342 75.2148 388.392 75.109 389.222 74.8975C390.068 74.6696 390.743 74.401 391.248 74.0918C391.753 73.7826 392.143 73.4814 392.42 73.1885V66.5234H385.364V61.6162H399.134Z" fill="white"/>
<path d="M429.041 74.7266V80H410.145V74.7266H429.041ZM412.195 44.4531V80H405.481V44.4531H412.195ZM426.575 59.126V64.2773H410.145V59.126H426.575ZM428.968 44.4531V49.751H410.145V44.4531H428.968Z" fill="white"/>
<path d="M193.958 97.4531V133H187.22L172.107 108.342V133H165.394V97.4531H172.107L187.269 122.136V97.4531H193.958Z" fill="white"/>
<path d="M229.578 114.323V116.154C229.578 118.84 229.22 121.257 228.504 123.405C227.788 125.537 226.771 127.352 225.452 128.85C224.134 130.347 222.563 131.494 220.74 132.292C218.917 133.09 216.891 133.488 214.661 133.488C212.464 133.488 210.446 133.09 208.606 132.292C206.784 131.494 205.205 130.347 203.87 128.85C202.535 127.352 201.502 125.537 200.77 123.405C200.037 121.257 199.671 118.84 199.671 116.154V114.323C199.671 111.621 200.037 109.204 200.77 107.072C201.502 104.94 202.527 103.125 203.846 101.628C205.164 100.114 206.735 98.9587 208.558 98.1611C210.397 97.3636 212.415 96.9648 214.612 96.9648C216.842 96.9648 218.868 97.3636 220.691 98.1611C222.514 98.9587 224.085 100.114 225.403 101.628C226.738 103.125 227.763 104.94 228.479 107.072C229.212 109.204 229.578 111.621 229.578 114.323ZM222.791 116.154V114.274C222.791 112.338 222.612 110.637 222.254 109.172C221.896 107.691 221.367 106.446 220.667 105.437C219.967 104.427 219.104 103.671 218.079 103.166C217.054 102.645 215.898 102.385 214.612 102.385C213.31 102.385 212.155 102.645 211.146 103.166C210.153 103.671 209.306 104.427 208.606 105.437C207.907 106.446 207.369 107.691 206.995 109.172C206.637 110.637 206.458 112.338 206.458 114.274V116.154C206.458 118.075 206.637 119.776 206.995 121.257C207.369 122.738 207.907 123.991 208.606 125.017C209.323 126.026 210.185 126.791 211.194 127.312C212.203 127.832 213.359 128.093 214.661 128.093C215.963 128.093 217.119 127.832 218.128 127.312C219.137 126.791 219.983 126.026 220.667 125.017C221.367 123.991 221.896 122.738 222.254 121.257C222.612 119.776 222.791 118.075 222.791 116.154Z" fill="white"/>
<path d="M249.109 97.4531V133H242.42V97.4531H249.109ZM260.145 97.4531V102.751H231.507V97.4531H260.145Z" fill="white"/>
<path d="M288.172 127.727V133H269.275V127.727H288.172ZM271.326 97.4531V133H264.612V97.4531H271.326ZM285.706 112.126V117.277H269.275V112.126H285.706ZM288.099 97.4531V102.751H269.275V97.4531H288.099Z" fill="white"/>
<path d="M311.438 123.771C311.438 123.088 311.333 122.478 311.121 121.94C310.926 121.387 310.56 120.891 310.022 120.451C309.502 119.995 308.761 119.556 307.801 119.133C306.857 118.693 305.636 118.238 304.139 117.766C302.479 117.245 300.932 116.659 299.5 116.008C298.068 115.357 296.806 114.6 295.716 113.737C294.642 112.875 293.803 111.882 293.201 110.759C292.599 109.619 292.298 108.301 292.298 106.804C292.298 105.339 292.607 104.004 293.226 102.8C293.86 101.595 294.756 100.562 295.911 99.6992C297.067 98.8203 298.426 98.1449 299.988 97.6729C301.567 97.2008 303.309 96.9648 305.213 96.9648C307.85 96.9648 310.128 97.445 312.049 98.4053C313.986 99.3656 315.483 100.668 316.541 102.312C317.599 103.955 318.128 105.803 318.128 107.854H311.438C311.438 106.747 311.202 105.77 310.73 104.924C310.275 104.077 309.575 103.41 308.631 102.922C307.703 102.434 306.531 102.189 305.115 102.189C303.748 102.189 302.609 102.393 301.697 102.8C300.802 103.207 300.127 103.76 299.671 104.46C299.231 105.16 299.012 105.941 299.012 106.804C299.012 107.455 299.166 108.041 299.476 108.562C299.785 109.066 300.249 109.546 300.867 110.002C301.486 110.441 302.251 110.856 303.162 111.247C304.09 111.621 305.164 111.996 306.385 112.37C308.338 112.956 310.047 113.607 311.512 114.323C312.993 115.039 314.222 115.853 315.198 116.765C316.191 117.676 316.932 118.701 317.42 119.841C317.924 120.98 318.177 122.274 318.177 123.723C318.177 125.253 317.876 126.62 317.273 127.824C316.671 129.029 315.809 130.054 314.686 130.9C313.562 131.747 312.212 132.39 310.633 132.829C309.07 133.269 307.321 133.488 305.384 133.488C303.659 133.488 301.95 133.26 300.257 132.805C298.58 132.333 297.059 131.633 295.691 130.705C294.324 129.761 293.234 128.573 292.42 127.141C291.606 125.692 291.199 123.999 291.199 122.062H297.938C297.938 123.186 298.117 124.146 298.475 124.943C298.849 125.725 299.37 126.368 300.037 126.872C300.721 127.36 301.518 127.718 302.43 127.946C303.341 128.174 304.326 128.288 305.384 128.288C306.751 128.288 307.874 128.101 308.753 127.727C309.648 127.336 310.315 126.799 310.755 126.115C311.211 125.432 311.438 124.65 311.438 123.771Z" fill="white"/>
</svg>
